
            <svg id="trend-chart" width="660" height="400" title="Stack Overflow Trends Chart" version="1.1" xmlns="http://www.w3.org/2000/svg"><g></g><g class="chart-area" transform="translate(100, 20)"><g transform="translate(0,300)" fill="none" font-size="10" font-family="sans-serif" text-anchor="middle"><path class="domain" stroke="#000" d="M0.5,6V0.5H410.5V6"></path><g class="tick" opacity="1" transform="translate(14.021564045027514,0)"><line stroke="#000" y2="6" x1="0.5" x2="0.5"></line><text fill="#000" y="9" x="0.5" dy="0.71em" style="font-size: 12px;">2009</text></g><g class="tick" opacity="1" transform="translate(47.46259345816147,0)"><line stroke="#000" y2="6" x1="0.5" x2="0.5"></line><text fill="#000" y="9" x="0.5" dy="0.71em" style="font-size: 12px;">2010</text></g><g class="tick" opacity="1" transform="translate(80.90362287129543,0)"><line stroke="#000" y2="6" x1="0.5" x2="0.5"></line><text fill="#000" y="9" x="0.5" dy="0.71em" style="font-size: 12px;">2011</text></g><g class="tick" opacity="1" transform="translate(114.34465228442937,0)"><line stroke="#000" y2="6" x1="0.5" x2="0.5"></line><text fill="#000" y="9" x="0.5" dy="0.71em" style="font-size: 12px;">2012</text></g><g class="tick" opacity="1" transform="translate(147.87730095622945,0)"><line stroke="#000" y2="6" x1="0.5" x2="0.5"></line><text fill="#000" y="9" x="0.5" dy="0.71em" style="font-size: 12px;">2013</text></g><g class="tick" opacity="1" transform="translate(181.31833036936342,0)"><line stroke="#000" y2="6" x1="0.5" x2="0.5"></line><text fill="#000" y="9" x="0.5" dy="0.71em" style="font-size: 12px;">2014</text></g><g class="tick" opacity="1" transform="translate(214.75935978249737,0)"><line stroke="#000" y2="6" x1="0.5" x2="0.5"></line><text fill="#000" y="9" x="0.5" dy="0.71em" style="font-size: 12px;">2015</text></g><g class="tick" opacity="1" transform="translate(248.20038919563132,0)"><line stroke="#000" y2="6" x1="0.5" x2="0.5"></line><text fill="#000" y="9" x="0.5" dy="0.71em" style="font-size: 12px;">2016</text></g><g class="tick" opacity="1" transform="translate(281.7330378674314,0)"><line stroke="#000" y2="6" x1="0.5" x2="0.5"></line><text fill="#000" y="9" x="0.5" dy="0.71em" style="font-size: 12px;">2017</text></g><g class="tick" opacity="1" transform="translate(315.17406728056534,0)"><line stroke="#000" y2="6" x1="0.5" x2="0.5"></line><text fill="#000" y="9" x="0.5" dy="0.71em" style="font-size: 12px;">2018</text></g><g class="tick" opacity="1" transform="translate(348.61509669369934,0)"><line stroke="#000" y2="6" x1="0.5" x2="0.5"></line><text fill="#000" y="9" x="0.5" dy="0.71em" style="font-size: 12px;">2019</text></g><g class="tick" opacity="1" transform="translate(382.0561261068333,0)"><line stroke="#000" y2="6" x1="0.5" x2="0.5"></line><text fill="#000" y="9" x="0.5" dy="0.71em" style="font-size: 12px;">2020</text></g></g><g class="grid-lines" transform="translate(0,300)" fill="none" font-size="10" font-family="sans-serif" text-anchor="middle"><path class="domain" stroke="#000" d="M0.5,-300V0.5H410.5V-300"></path><g class="tick" opacity="1" transform="translate(14.021564045027514,0)"><line stroke="#000" y2="-300" x1="0.5" x2="0.5" style="stroke: #ccc; fill: none;"></line></g><g class="tick" opacity="1" transform="translate(47.46259345816147,0)"><line stroke="#000" y2="-300" x1="0.5" x2="0.5" style="stroke: #ccc; fill: none;"></line></g><g class="tick" opacity="1" transform="translate(80.90362287129543,0)"><line stroke="#000" y2="-300" x1="0.5" x2="0.5" style="stroke: #ccc; fill: none;"></line></g><g class="tick" opacity="1" transform="translate(114.34465228442937,0)"><line stroke="#000" y2="-300" x1="0.5" x2="0.5" style="stroke: #ccc; fill: none;"></line></g><g class="tick" opacity="1" transform="translate(147.87730095622945,0)"><line stroke="#000" y2="-300" x1="0.5" x2="0.5" style="stroke: #ccc; fill: none;"></line></g><g class="tick" opacity="1" transform="translate(181.31833036936342,0)"><line stroke="#000" y2="-300" x1="0.5" x2="0.5" style="stroke: #ccc; fill: none;"></line></g><g class="tick" opacity="1" transform="translate(214.75935978249737,0)"><line stroke="#000" y2="-300" x1="0.5" x2="0.5" style="stroke: #ccc; fill: none;"></line></g><g class="tick" opacity="1" transform="translate(248.20038919563132,0)"><line stroke="#000" y2="-300" x1="0.5" x2="0.5" style="stroke: #ccc; fill: none;"></line></g><g class="tick" opacity="1" transform="translate(281.7330378674314,0)"><line stroke="#000" y2="-300" x1="0.5" x2="0.5" style="stroke: #ccc; fill: none;"></line></g><g class="tick" opacity="1" transform="translate(315.17406728056534,0)"><line stroke="#000" y2="-300" x1="0.5" x2="0.5" style="stroke: #ccc; fill: none;"></line></g><g class="tick" opacity="1" transform="translate(348.61509669369934,0)"><line stroke="#000" y2="-300" x1="0.5" x2="0.5" style="stroke: #ccc; fill: none;"></line></g><g class="tick" opacity="1" transform="translate(382.0561261068333,0)"><line stroke="#000" y2="-300" x1="0.5" x2="0.5" style="stroke: #ccc; fill: none;"></line></g></g><text x="205" y="360" class="axis-label x-axis-label" style="text-anchor: middle; font-weight: bold;">Year</text><g fill="none" font-size="10" font-family="sans-serif" text-anchor="end"><path class="domain" stroke="#000" d="M-6,300.5H0.5V0.5H-6"></path><g class="tick" opacity="1" transform="translate(0,300)"><line stroke="#000" x2="-6" y1="0.5" y2="0.5"></line><text fill="#000" x="-9" y="0.5" dy="0.32em" style="font-size: 12px;">0.00%</text></g><g class="tick" opacity="1" transform="translate(0,270)"><line stroke="#000" x2="-6" y1="0.5" y2="0.5"></line><text fill="#000" x="-9" y="0.5" dy="0.32em" style="font-size: 12px;">0.02%</text></g><g class="tick" opacity="1" transform="translate(0,240)"><line stroke="#000" x2="-6" y1="0.5" y2="0.5"></line><text fill="#000" x="-9" y="0.5" dy="0.32em" style="font-size: 12px;">0.04%</text></g><g class="tick" opacity="1" transform="translate(0,210)"><line stroke="#000" x2="-6" y1="0.5" y2="0.5"></line><text fill="#000" x="-9" y="0.5" dy="0.32em" style="font-size: 12px;">0.06%</text></g><g class="tick" opacity="1" transform="translate(0,180)"><line stroke="#000" x2="-6" y1="0.5" y2="0.5"></line><text fill="#000" x="-9" y="0.5" dy="0.32em" style="font-size: 12px;">0.08%</text></g><g class="tick" opacity="1" transform="translate(0,150)"><line stroke="#000" x2="-6" y1="0.5" y2="0.5"></line><text fill="#000" x="-9" y="0.5" dy="0.32em" style="font-size: 12px;">0.10%</text></g><g class="tick" opacity="1" transform="translate(0,120)"><line stroke="#000" x2="-6" y1="0.5" y2="0.5"></line><text fill="#000" x="-9" y="0.5" dy="0.32em" style="font-size: 12px;">0.12%</text></g><g class="tick" opacity="1" transform="translate(0,90)"><line stroke="#000" x2="-6" y1="0.5" y2="0.5"></line><text fill="#000" x="-9" y="0.5" dy="0.32em" style="font-size: 12px;">0.14%</text></g><g class="tick" opacity="1" transform="translate(0,60)"><line stroke="#000" x2="-6" y1="0.5" y2="0.5"></line><text fill="#000" x="-9" y="0.5" dy="0.32em" style="font-size: 12px;">0.16%</text></g><g class="tick" opacity="1" transform="translate(0,30)"><line stroke="#000" x2="-6" y1="0.5" y2="0.5"></line><text fill="#000" x="-9" y="0.5" dy="0.32em" style="font-size: 12px;">0.18%</text></g><g class="tick" opacity="1" transform="translate(0,0)"><line stroke="#000" x2="-6" y1="0.5" y2="0.5"></line><text fill="#000" x="-9" y="0.5" dy="0.32em" style="font-size: 12px;">0.20%</text></g></g><g class="grid-lines" fill="none" font-size="10" font-family="sans-serif" text-anchor="end"><path class="domain" stroke="#000" d="M410,300.5H0.5V0.5H410"></path><g class="tick" opacity="1" transform="translate(0,300)"><line stroke="#000" x2="410" y1="0.5" y2="0.5" style="stroke: #ccc; fill: none;"></line></g><g class="tick" opacity="1" transform="translate(0,270)"><line stroke="#000" x2="410" y1="0.5" y2="0.5" style="stroke: #ccc; fill: none;"></line></g><g class="tick" opacity="1" transform="translate(0,240)"><line stroke="#000" x2="410" y1="0.5" y2="0.5" style="stroke: #ccc; fill: none;"></line></g><g class="tick" opacity="1" transform="translate(0,210)"><line stroke="#000" x2="410" y1="0.5" y2="0.5" style="stroke: #ccc; fill: none;"></line></g><g class="tick" opacity="1" transform="translate(0,180)"><line stroke="#000" x2="410" y1="0.5" y2="0.5" style="stroke: #ccc; fill: none;"></line></g><g class="tick" opacity="1" transform="translate(0,150)"><line stroke="#000" x2="410" y1="0.5" y2="0.5" style="stroke: #ccc; fill: none;"></line></g><g class="tick" opacity="1" transform="translate(0,120)"><line stroke="#000" x2="410" y1="0.5" y2="0.5" style="stroke: #ccc; fill: none;"></line></g><g class="tick" opacity="1" transform="translate(0,90)"><line stroke="#000" x2="410" y1="0.5" y2="0.5" style="stroke: #ccc; fill: none;"></line></g><g class="tick" opacity="1" transform="translate(0,60)"><line stroke="#000" x2="410" y1="0.5" y2="0.5" style="stroke: #ccc; fill: none;"></line></g><g class="tick" opacity="1" transform="translate(0,30)"><line stroke="#000" x2="410" y1="0.5" y2="0.5" style="stroke: #ccc; fill: none;"></line></g><g class="tick" opacity="1" transform="translate(0,0)"><line stroke="#000" x2="410" y1="0.5" y2="0.5" style="stroke: #ccc; fill: none;"></line></g></g><g class="lines"><path class="line" d="M2.840197018649733,300L5.588774778633346,300L8.432789266394167,300L11.181367026377782,300L14.021564045027514,300L16.861761063677246,300L19.42710030632862,300L22.263479855867264,300L25.012057615850875,300L27.85225463450061,300L30.60083239448422,300L33.44102941313396,300L36.281226431783686,300L39.0298041917673,300L41.87381867952813,300L44.62239643951174,300L47.46259345816147,300L50.302790476811204,300L52.86812971946257,300L55.70450926900122,300L58.45308702898483,300L61.29328404763457,300L64.04186180761818,300L66.88205882626792,300L69.72225584491764,300L72.47083360490126,300L75.31484809266209,300L78.0634258526457,300L80.90362287129543,300L83.74381988994516,300L86.30915913259652,300L89.14553868213518,300L91.89411644211879,300L94.73431346076852,300L97.48289122075214,300L100.32308823940187,300L103.16328525805162,300L105.91186301803522,300L108.75587750579602,300L111.50445526577965,300L114.34465228442937,300L117.18484930307912,300L119.84180780439661,300L122.67818735393526,300L125.42676511391886,300L128.2669621325686,300L131.0155398925522,300L133.85573691120194,300L136.69593392985166,300L139.44451168983528,300L142.2885261775961,300L145.03710393757973,300L147.87730095622945,300L150.7174979748792,300L153.28283721753056,300L156.1192167670692,300L158.86779452705284,300L161.70799154570255,300L164.45656930568617,300L167.2967663243359,300L170.13696334298564,300L172.88554110296923,300L175.72955559073006,300L178.47813335071368,300L181.31833036936342,300L184.15852738801317,300L186.7238666306645,284.124235077L189.56024618020317,296.920486974L192.30882394018676,296.6002583805L195.1490209588365,278.806661466L197.89759871882012,173.089288737L200.73779573746987,209.2387052625L203.57799275611958,216.97050648L206.32657051610323,228.0309380265L209.17058500386403,225.292529253L211.91916276384762,212.16272739599998L214.75935978249737,220.4507789205L217.59955680114712,233.9100819885L220.1648960437985,239.81596355250002L223.0012755933371,258.771605265L225.74985335332073,244.894949244L228.59005037197048,238.306554996L231.33862813195407,246.862309206L234.1788251506038,246.058986573L237.01902216925356,264.4292876835L239.76759992923715,255.55579498650002L242.61161441699798,255.2004147495L245.36019217698157,261.578539869L248.20038919563132,251.7497642955L251.04058621428106,255.980044287L253.69754471559853,264.850176996L256.5339242651372,261.6695712615L259.28250202512083,270.5343633045L262.1226990437705,269.7108615225L264.87127680375414,260.753978637L267.7114738224039,257.6186677305L270.55167084105364,279.750193695L273.30024860103725,270.7091823855L276.144263088798,277.58762377200003L278.89284084878165,274.8623636835L281.7330378674314,273.505481232L284.57323488608114,274.9879252065L287.1385741287325,279.0077671275L289.97495367827116,276.32121957L292.7235314382547,271.657777107L295.56372845690447,280.5135388545L298.3123062168881,279.829333752L301.15250323553784,277.861035423L303.9927002541876,283.2303344625L306.7412780141712,278.6839721235L309.585292501932,277.6544968095L312.33387026191565,281.2990898895L315.17406728056534,286.808713788L318.0142642992151,293.0925142605L320.57960354186645,286.016267742L323.4159830914051,289.7678860455L326.1645608513887,277.444423059L329.0047578700384,285.3018989955L331.7533356300221,285.7801933905L334.5935326486718,288.5546420475L337.43372966732153,289.541207643L340.18230742730515,288.718482261L343.026321915066,286.911170478L345.7748996750496,290.876952903L348.61509669369934,294.9514327845L351.4552937123491,290.7315867525L354.0206329550004,289.705708029L356.85701250453906,292.1426887725L359.6055902645227,294.0254119155L362.4457872831724,295.5713674155L365.19436504315604,288.0432833145L368.0345620618058,291.200539701L370.87475908045553,291.190203507L373.6233368404391,291.136032357L376.4673513281999,292.915075371L379.21592908818354,292.9525471515L382.0561261068333,283.080832068L384.89632312548304,281.3399680125L387.55328162680047,292.7277428535L390.38966117633913,293.1735022665L393.13823893632275,292.594554081L395.9784359549725,293.4033393765L398.7270137149561,292.381300665L401.56721073360586,294.010883082L404.4074077522556,290.2626143415L407.15598551223917,294.7185268215L410,284.3888223975" data-legend="wear-os" style="stroke: rgb(31, 119, 180); fill: none;"></path><path class="line" d="M2.840197018649733,300L5.588774778633346,300L8.432789266394167,300L11.181367026377782,300L14.021564045027514,300L16.861761063677246,300L19.42710030632862,300L22.263479855867264,300L25.012057615850875,300L27.85225463450061,300L30.60083239448422,300L33.44102941313396,300L36.281226431783686,300L39.0298041917673,300L41.87381867952813,300L44.62239643951174,300L47.46259345816147,300L50.302790476811204,300L52.86812971946257,300L55.70450926900122,300L58.45308702898483,300L61.29328404763457,300L64.04186180761818,300L66.88205882626792,300L69.72225584491764,300L72.47083360490126,300L75.31484809266209,300L78.0634258526457,300L80.90362287129543,300L83.74381988994516,300L86.30915913259652,300L89.14553868213518,300L91.89411644211879,300L94.73431346076852,300L97.48289122075214,300L100.32308823940187,300L103.16328525805162,300L105.91186301803522,300L108.75587750579602,300L111.50445526577965,300L114.34465228442937,300L117.18484930307912,300L119.84180780439661,300L122.67818735393526,300L125.42676511391886,300L128.2669621325686,300L131.0155398925522,300L133.85573691120194,300L136.69593392985166,300L139.44451168983528,300L142.2885261775961,300L145.03710393757973,300L147.87730095622945,300L150.7174979748792,300L153.28283721753056,300L156.1192167670692,300L158.86779452705284,300L161.70799154570255,300L164.45656930568617,300L167.2967663243359,300L170.13696334298564,300L172.88554110296923,300L175.72955559073006,300L178.47813335071368,300L181.31833036936342,300L184.15852738801317,300L186.7238666306645,300L189.56024618020317,300L192.30882394018676,300L195.1490209588365,300L197.89759871882012,300L200.73779573746987,300L203.57799275611958,296.390022021L206.32657051610323,300L209.17058500386403,277.497749775L211.91916276384762,285.521328693L214.75935978249737,256.6095157755L217.59955680114712,253.558435992L220.1648960437985,218.43479270850003L223.0012755933371,135.8792748045L225.74985335332073,192.2210036685L228.59005037197048,231.896846424L231.33862813195407,226.0692997635L234.1788251506038,237.76036912350003L237.01902216925356,241.5624011925L239.76759992923715,233.737730706L242.61161441699798,248.438213202L245.36019217698157,265.0713998805L248.20038919563132,260.90067106649997L251.04058621428106,267.1851239235L253.69754471559853,267.0937827195L256.5339242651372,280.068177057L259.28250202512083,280.090786017L262.1226990437705,283.6274927145L264.87127680375414,281.230163697L267.7114738224039,276.7318175775L270.55167084105364,273.587209167L273.30024860103725,283.631601921L276.144263088798,284.483739534L278.89284084878165,283.2415757895L281.7330378674314,286.325409669L284.57323488608114,282.7502932455L287.1385741287325,283.5061027425L289.97495367827116,281.3952439485L292.7235314382547,283.804444062L295.56372845690447,279.6663014145L298.3123062168881,284.872000314L301.15250323553784,289.78201635L303.9927002541876,279.50374212L306.7412780141712,291.118321719L309.585292501932,281.22977732100003L312.33387026191565,289.61060549399997L315.17406728056534,282.09754014L318.0142642992151,279.2775427785L320.57960354186645,286.016267742L323.4159830914051,286.0471173345L326.1645608513887,290.0755461465L329.0047578700384,285.3018989955L331.7533356300221,291.468116034L334.5935326486718,294.2773210245L337.43372966732153,287.449449171L340.18230742730515,281.19747043350003L343.026321915066,286.911170478L345.7748996750496,282.894286692L348.61509669369934,288.8931521235L351.4552937123491,289.701763059L354.0206329550004,292.513242204L356.85701250453906,289.196197062L359.6055902645227,284.0677651065L362.4457872831724,281.178311511L365.19436504315604,282.0649249725L368.0345620618058,287.9007420885L370.87475908045553,279.076733328L373.6233368404391,273.408097071L376.4673513281999,284.8180186515L379.21592908818354,284.898315324L382.0561261068333,285.75227963550003L384.89632312548304,284.894259819L387.55328162680047,284.6474571345L390.38966117633913,283.6164054405L393.13823893632275,289.2284422995L395.9784359549725,286.073716461L398.7270137149561,288.5719509975L401.56721073360586,294.010883082L404.4074077522556,290.2626143415L407.15598551223917,288.5568081135L410,289.592548266" data-legend="apple-watch" style="stroke: rgb(255, 127, 14); fill: none;"></path></g></g><g transform="translate(20, 150)"><text transform="rotate(-90)" x="-50" y="0" dy="1em" class="axis-label y-axis-label" style="text-anchor: middle; font-weight: bold;">% of Stack Overflow questions that month</text></g><g class="legend" transform="translate(530, 30)" style="font-size: 12px;"><text class="legend-title" style="font-weight: bold;">Tag</text><g class="legend-items" transform="translate(0,20)"><text y="0em" x="1em">apple-watch</text><text y="1em" x="1em">wear-os</text><circle cy="-0.25em" cx="0" r="0.4em" style="fill: rgb(255, 127, 14);"></circle><circle cy="0.75em" cx="0" r="0.4em" style="fill: rgb(31, 119, 180);"></circle></g><rect class="legend-box"></rect></g></svg>
        